<?xml version="1.0" standalone="no"?>
<!DOCTYPE svg PUBLIC "-//W3C//DTD SVG 20010904//EN"
 "http://www.w3.org/TR/2001/REC-SVG-20010904/DTD/svg10.dtd">
<svg version="1.0" xmlns="http://www.w3.org/2000/svg"
 width="1024.000000pt" height="1024.000000pt" viewBox="0 0 1024.000000 1024.000000"
 preserveAspectRatio="xMidYMid meet">

<g transform="translate(0.000000,1024.000000) scale(0.100000,-0.100000)"
fill="#000000" stroke="none">
<path d="M3399 7641 c-111 -36 -188 -109 -229 -218 -20 -54 -20 -67 -18 -1136
l3 -1082 29 -58 c36 -71 108 -140 184 -175 l57 -27 663 -3 662 -3 0 -209 0
-210 -257 0 c-242 0 -259 -1 -301 -21 -116 -57 -146 -230 -50 -289 33 -20 44
-20 986 -18 l954 3 34 37 c29 33 34 45 34 88 0 80 -42 146 -117 184 -27 13
-72 16 -288 16 l-255 0 0 210 0 210 663 2 662 3 62 29 c76 35 153 113 191 193
l27 58 0 1080 0 1080 -31 65 c-40 84 -91 135 -173 174 l-66 31 -1685 2 c-1597
2 -1688 1 -1741 -16z m3341 -343 c20 -22 20 -30 20 -914 l0 -893 -26 -20 -27
-21 -1594 2 c-1565 3 -1595 3 -1609 22 -12 17 -14 157 -14 913 0 880 0 893 20
913 20 20 33 20 1615 20 l1594 0 21 -22z"/>
<path d="M6932 3733 c-91 -32 -142 -120 -142 -245 l0 -58 -70 0 -70 0 0 -92 0
-93 70 2 70 1 0 -324 0 -324 115 0 116 0 -1 323 -1 322 90 0 91 0 0 92 0 93
-90 0 -90 0 0 54 c0 55 8 69 46 78 21 5 106 -5 134 -16 13 -5 15 8 12 91 -2
61 -8 101 -15 105 -22 14 -220 7 -265 -9z"/>
<path d="M5102 3719 c-210 -41 -333 -224 -278 -412 38 -129 139 -199 366 -251
185 -42 235 -73 235 -146 0 -82 -68 -130 -181 -130 -115 0 -183 33 -214 103
l-18 40 -112 1 -112 1 4 -46 c9 -94 79 -189 178 -243 134 -73 367 -74 509 -2
70 36 147 125 167 194 23 78 15 165 -22 232 -54 99 -143 150 -359 205 -163 42
-211 68 -221 120 -15 80 43 134 152 143 46 3 76 0 109 -12 45 -18 105 -75 105
-101 0 -12 21 -15 116 -15 l116 0 -7 37 c-38 207 -277 333 -533 282z"/>
<path d="M2550 3155 l0 -555 110 0 110 0 2 365 3 365 126 -272 126 -273 85 -3
85 -3 37 83 c21 46 79 172 129 282 l92 199 3 -372 2 -371 110 0 110 0 0 555 0
555 -138 0 -138 0 -144 -325 c-79 -179 -147 -322 -151 -318 -4 5 -69 151 -145
325 l-139 318 -137 0 -138 0 0 -555z"/>
<path d="M3870 3156 l0 -556 110 0 110 0 0 180 0 180 128 0 c242 0 368 62 439
215 24 53 28 72 28 160 0 135 -20 191 -94 266 -39 39 -75 63 -116 79 -57 23
-75 24 -332 28 l-273 4 0 -556z m500 332 c63 -33 83 -66 88 -141 4 -84 -17
-123 -88 -159 -49 -26 -63 -28 -167 -28 l-113 0 0 175 0 175 118 0 c102 0 123
-3 162 -22z"/>
<path d="M7399 3548 c-1 -51 -1 -99 0 -105 1 -9 -17 -13 -64 -13 l-65 0 0 -93
0 -93 63 1 62 0 1 -227 1 -227 29 -58 c54 -108 162 -161 302 -149 41 3 78 8
83 12 5 3 9 48 9 100 l0 94 -75 0 c-69 0 -78 2 -100 26 -25 27 -25 28 -25 230
l0 203 95 -2 95 -2 0 92 0 93 -95 0 -95 0 0 105 0 105 -110 0 -110 0 -1 -92z"/>
<path d="M6066 3429 c-63 -15 -153 -68 -202 -121 -111 -119 -140 -306 -73
-483 31 -83 130 -182 214 -216 51 -20 77 -24 180 -24 110 0 125 2 179 28 163
76 246 212 246 403 0 206 -114 360 -305 410 -56 15 -180 17 -239 3z m201 -195
c69 -34 107 -115 107 -231 -1 -57 -6 -82 -28 -127 -36 -74 -80 -101 -161 -101
-121 0 -189 82 -189 230 -1 160 63 244 187 245 27 0 65 -7 84 -16z"/>
</g>
</svg>
